<mxfile host="app.diagrams.net" modified="2021-02-19T18:41:11.440Z" agent="5.0 (Windows NT 10.0; Win64; x64) AppleWebKit/537.36 (KHTML, like Gecko) Chrome/88.0.4324.182 Safari/537.36" etag="l0EeyNY5lwatj3xSlWul" version="14.4.2" type="github">
  <diagram id="lG1God8qLXHBakC-H5Bo" name="Page-1">
    <mxGraphModel dx="1770" dy="484" grid="1" gridSize="10" guides="1" tooltips="1" connect="1" arrows="1" fold="1" page="1" pageScale="1" pageWidth="850" pageHeight="1100" math="0" shadow="0">
      <root>
        <mxCell id="0" />
        <mxCell id="1" parent="0" />
        <mxCell id="wC3yzVOcegTzhQeosX-J-5" style="edgeStyle=orthogonalEdgeStyle;rounded=0;orthogonalLoop=1;jettySize=auto;html=1;exitX=0.5;exitY=1;exitDx=0;exitDy=0;entryX=0.5;entryY=0;entryDx=0;entryDy=0;fontFamily=Times New Roman;fontSize=10;fontStyle=1;align=center;" edge="1" parent="1" source="wC3yzVOcegTzhQeosX-J-1">
          <mxGeometry relative="1" as="geometry">
            <mxPoint x="330" y="200" as="targetPoint" />
          </mxGeometry>
        </mxCell>
        <mxCell id="wC3yzVOcegTzhQeosX-J-1" value="WELCOME TO JUNGLE JUNCTION!!" style="rounded=0;whiteSpace=wrap;html=1;fontFamily=Times New Roman;fontSize=10;fontStyle=1;align=center;fillColor=#d5e8d4;strokeColor=#82b366;" vertex="1" parent="1">
          <mxGeometry x="270" y="20" width="120" height="60" as="geometry" />
        </mxCell>
        <mxCell id="wC3yzVOcegTzhQeosX-J-10" style="edgeStyle=orthogonalEdgeStyle;rounded=0;orthogonalLoop=1;jettySize=auto;html=1;exitX=0.5;exitY=1;exitDx=0;exitDy=0;entryX=0.5;entryY=0;entryDx=0;entryDy=0;fontFamily=Times New Roman;fontSize=10;fontStyle=1;align=center;" edge="1" parent="1" source="wC3yzVOcegTzhQeosX-J-7" target="wC3yzVOcegTzhQeosX-J-9">
          <mxGeometry relative="1" as="geometry" />
        </mxCell>
        <mxCell id="wC3yzVOcegTzhQeosX-J-13" style="edgeStyle=orthogonalEdgeStyle;rounded=0;orthogonalLoop=1;jettySize=auto;html=1;exitX=1;exitY=0.5;exitDx=0;exitDy=0;entryX=0;entryY=0.5;entryDx=0;entryDy=0;fontFamily=Times New Roman;fontSize=10;fontStyle=1;align=center;" edge="1" parent="1" source="wC3yzVOcegTzhQeosX-J-7" target="wC3yzVOcegTzhQeosX-J-11">
          <mxGeometry relative="1" as="geometry" />
        </mxCell>
        <mxCell id="wC3yzVOcegTzhQeosX-J-7" value="CHOOSE A DIRECTION&lt;br style=&quot;font-size: 10px;&quot;&gt;R/L" style="rhombus;whiteSpace=wrap;html=1;fontSize=10;fontStyle=1;fontFamily=Times New Roman;align=center;fillColor=#dae8fc;strokeColor=#6c8ebf;" vertex="1" parent="1">
          <mxGeometry x="260" y="200" width="140" height="80" as="geometry" />
        </mxCell>
        <mxCell id="wC3yzVOcegTzhQeosX-J-14" style="edgeStyle=orthogonalEdgeStyle;rounded=0;orthogonalLoop=1;jettySize=auto;html=1;exitX=1;exitY=0.5;exitDx=0;exitDy=0;entryX=0;entryY=0.5;entryDx=0;entryDy=0;fontFamily=Times New Roman;fontSize=10;fontStyle=1;align=center;" edge="1" parent="1" source="wC3yzVOcegTzhQeosX-J-9" target="wC3yzVOcegTzhQeosX-J-12">
          <mxGeometry relative="1" as="geometry" />
        </mxCell>
        <mxCell id="wC3yzVOcegTzhQeosX-J-16" style="edgeStyle=orthogonalEdgeStyle;rounded=0;orthogonalLoop=1;jettySize=auto;html=1;exitX=0.5;exitY=1;exitDx=0;exitDy=0;fontFamily=Times New Roman;fontSize=10;fontStyle=1;align=center;" edge="1" parent="1" source="wC3yzVOcegTzhQeosX-J-9">
          <mxGeometry relative="1" as="geometry">
            <mxPoint x="330" y="630" as="targetPoint" />
          </mxGeometry>
        </mxCell>
        <mxCell id="wC3yzVOcegTzhQeosX-J-23" style="edgeStyle=orthogonalEdgeStyle;rounded=0;orthogonalLoop=1;jettySize=auto;html=1;exitX=0;exitY=0.5;exitDx=0;exitDy=0;entryX=1;entryY=0.5;entryDx=0;entryDy=0;fontFamily=Times New Roman;fontSize=10;align=center;" edge="1" parent="1" source="wC3yzVOcegTzhQeosX-J-9" target="wC3yzVOcegTzhQeosX-J-21">
          <mxGeometry relative="1" as="geometry" />
        </mxCell>
        <mxCell id="wC3yzVOcegTzhQeosX-J-9" value="A" style="rhombus;whiteSpace=wrap;html=1;fontFamily=Times New Roman;fontSize=10;fontStyle=1;align=center;fillColor=#dae8fc;strokeColor=#6c8ebf;" vertex="1" parent="1">
          <mxGeometry x="260" y="410" width="140" height="90" as="geometry" />
        </mxCell>
        <mxCell id="wC3yzVOcegTzhQeosX-J-11" value="AND WE HEAD TO THE CRYSTAL LAKE&lt;br style=&quot;font-size: 10px;&quot;&gt;THE PRIDE OF OUR JUNGLE" style="rounded=1;whiteSpace=wrap;html=1;fontFamily=Times New Roman;fontSize=10;fontStyle=1;align=center;fillColor=#fff2cc;strokeColor=#d6b656;" vertex="1" parent="1">
          <mxGeometry x="570" y="210" width="120" height="60" as="geometry" />
        </mxCell>
        <mxCell id="wC3yzVOcegTzhQeosX-J-12" value="RIGHT CHOICE MY FRIEND! LETS ENJOY THE BERRIES WITH MR.MONKEY HERE.&lt;br&gt;DON&#39;T FORGET TO SHARE....YAY!!" style="rounded=1;whiteSpace=wrap;html=1;fontFamily=Times New Roman;fontSize=10;fontStyle=1;align=center;fillColor=#fff2cc;strokeColor=#d6b656;" vertex="1" parent="1">
          <mxGeometry x="580" y="417.5" width="130" height="75" as="geometry" />
        </mxCell>
        <mxCell id="wC3yzVOcegTzhQeosX-J-17" value="B" style="rhombus;whiteSpace=wrap;html=1;fontFamily=Times New Roman;fontSize=10;fontStyle=1;align=center;fillColor=#dae8fc;strokeColor=#6c8ebf;" vertex="1" parent="1">
          <mxGeometry x="260" y="630" width="140" height="80" as="geometry" />
        </mxCell>
        <mxCell id="wC3yzVOcegTzhQeosX-J-18" value="&lt;ul style=&quot;font-size: 10px;&quot;&gt;&lt;li style=&quot;font-size: 10px;&quot;&gt;FOR RIGHT, TYPE R&lt;/li&gt;&lt;li style=&quot;font-size: 10px;&quot;&gt;FOR LEFT, TYPE L&lt;br style=&quot;font-size: 10px;&quot;&gt;&lt;/li&gt;&lt;/ul&gt;" style="text;html=1;strokeColor=none;fillColor=none;align=center;verticalAlign=middle;whiteSpace=wrap;rounded=0;fontFamily=Times New Roman;fontSize=10;fontStyle=1" vertex="1" parent="1">
          <mxGeometry x="530" y="20" width="210" height="80" as="geometry" />
        </mxCell>
        <mxCell id="wC3yzVOcegTzhQeosX-J-19" value="R" style="text;html=1;strokeColor=none;fillColor=none;align=center;verticalAlign=middle;whiteSpace=wrap;rounded=0;fontFamily=Times New Roman;fontSize=10;fontStyle=1" vertex="1" parent="1">
          <mxGeometry x="470" y="210" width="40" height="20" as="geometry" />
        </mxCell>
        <mxCell id="wC3yzVOcegTzhQeosX-J-20" value="L" style="text;html=1;strokeColor=none;fillColor=none;align=center;verticalAlign=middle;whiteSpace=wrap;rounded=0;fontFamily=Times New Roman;fontSize=10;fontStyle=1" vertex="1" parent="1">
          <mxGeometry x="280" y="360" width="40" height="20" as="geometry" />
        </mxCell>
        <mxCell id="wC3yzVOcegTzhQeosX-J-21" value="OH HONEY , YOU CHOSE LEFT AGAIN EH!&lt;br&gt;HERE WE ARE , AT THE STARTING AGAIN.&lt;br&gt;&lt;br&gt;HA HA HA&lt;br&gt;I HAD SO MUCH FUN!!&lt;br&gt;GO ROUND AND ROUND AND ROUND....MERRY GO ROUND" style="rounded=1;whiteSpace=wrap;html=1;fontFamily=Times New Roman;fontSize=10;fontStyle=1;align=center;fillColor=#fff2cc;strokeColor=#d6b656;" vertex="1" parent="1">
          <mxGeometry x="-60" y="402.5" width="160" height="105" as="geometry" />
        </mxCell>
        <mxCell id="wC3yzVOcegTzhQeosX-J-24" value="L" style="text;html=1;strokeColor=none;fillColor=none;align=center;verticalAlign=middle;whiteSpace=wrap;rounded=0;fontFamily=Times New Roman;fontSize=10;fontStyle=1" vertex="1" parent="1">
          <mxGeometry x="170" y="425" width="40" height="20" as="geometry" />
        </mxCell>
        <mxCell id="wC3yzVOcegTzhQeosX-J-25" value="R" style="text;html=1;strokeColor=none;fillColor=none;align=center;verticalAlign=middle;whiteSpace=wrap;rounded=0;fontFamily=Times New Roman;fontSize=10;fontStyle=1" vertex="1" parent="1">
          <mxGeometry x="470" y="425" width="40" height="20" as="geometry" />
        </mxCell>
        <mxCell id="wC3yzVOcegTzhQeosX-J-26" value="C" style="text;html=1;strokeColor=none;fillColor=none;align=center;verticalAlign=middle;whiteSpace=wrap;rounded=0;fontFamily=Times New Roman;fontSize=10;fontStyle=1" vertex="1" parent="1">
          <mxGeometry x="340" y="540" width="40" height="20" as="geometry" />
        </mxCell>
        <mxCell id="wC3yzVOcegTzhQeosX-J-27" value="&lt;span style=&quot;font-weight: 700&quot;&gt;A --&amp;nbsp;&lt;/span&gt;&lt;span style=&quot;font-weight: 700&quot;&gt;AND LEFT WE GO .... OH NOW YOU ARE TO CHOOSE BETWEEN THREE WAYS&amp;nbsp;&lt;/span&gt;&lt;br style=&quot;font-weight: 700&quot;&gt;&lt;span style=&quot;font-weight: 700&quot;&gt;WHICH WOULD YOU CHOOSE MY FRIEND&lt;br&gt;&lt;/span&gt;&lt;span style=&quot;font-weight: 700&quot;&gt;---------------------------------------------------&lt;br&gt;B -- I HOPE THE DECISION WAS NOT SO HARD MY DEAR.&amp;nbsp;&lt;/span&gt;&lt;br style=&quot;font-weight: 700&quot;&gt;&lt;span style=&quot;font-weight: 700&quot;&gt;LETS CONTINUE OUR ADVENTURE!&amp;nbsp;&lt;/span&gt;&lt;br style=&quot;font-weight: 700&quot;&gt;&lt;span style=&quot;font-weight: 700&quot;&gt;WE&#39;LL FLY GO THROUGH THE VALLEYS NOW.&lt;/span&gt;&lt;br style=&quot;font-weight: 700&quot;&gt;&lt;br style=&quot;font-weight: 700&quot;&gt;&lt;span style=&quot;font-weight: 700&quot;&gt;WOULD YOU LIKE TO GO AHEAD OR QUIT?&amp;nbsp;&lt;/span&gt;&lt;br style=&quot;font-weight: 700&quot;&gt;&lt;span style=&quot;font-weight: 700&quot;&gt;1 = YES&lt;/span&gt;&lt;br style=&quot;font-weight: 700&quot;&gt;&lt;span style=&quot;font-weight: 700&quot;&gt;0 = NO&lt;br&gt;------------------------------------------------&lt;br&gt;C --&amp;nbsp;&lt;br&gt;&lt;/span&gt;" style="text;html=1;strokeColor=#9673a6;fillColor=#e1d5e7;align=center;verticalAlign=middle;whiteSpace=wrap;rounded=0;fontFamily=Times New Roman;fontSize=10;labelBorderColor=#000000;" vertex="1" parent="1">
          <mxGeometry x="-119" y="107" width="240" height="190" as="geometry" />
        </mxCell>
      </root>
    </mxGraphModel>
  </diagram>
</mxfile>
